<?xml version="1.0" encoding="UTF-8" standalone="no"?>
<!-- Created with Inkscape (http://www.inkscape.org/) -->

<svg
   width="79.374992mm"
   height="83.465614mm"
   viewBox="0 0 79.374992 83.465614"
   version="1.1"
   id="svg5"
   xmlns="http://www.w3.org/2000/svg"
   xmlns:svg="http://www.w3.org/2000/svg">
  <defs
     id="defs2" />
  <g
     id="layer1"
     transform="translate(-61.89482,-107.52352)">
    <path
       style="fill:#ffffff;stroke-width:0.0533369"
       d="m 105.35542,190.97509 c -2.31429,-0.1286 -3.49108,-0.23364 -5.10705,-0.45582 -1.860523,-0.25582 -4.054156,-0.69357 -5.848926,-1.16719 -1.00491,-0.26518 -2.71689,-0.77896 -2.78097,-0.83458 -0.0571,-0.0496 0.11627,-1.28959 0.54517,-3.89915 0.78385,-4.76936 0.98888,-6.8443 0.98815,-10.00052 -6.5e-4,-2.8371 -0.1995,-4.99848 -0.7117,-7.73577 -0.20516,-1.09644 -0.6012,-2.83174 -0.65809,-2.88354 -0.0183,-0.0167 -0.24189,0.0449 -0.49671,0.13688 -7.65794,2.765 -14.95242,6.09096 -20.0357,9.13542 l -1.12607,0.67443 -0.67089,-0.87243 c -3.24488,-4.21968 -5.62266,-8.97597 -6.962165,-13.92653 -0.268772,-0.99332 -0.595649,-2.38566 -0.595649,-2.53716 0,-0.0802 0.179558,-0.1077 1.662964,-0.25528 10.6702,-1.06149 18.34301,-2.56572 22.52349,-4.41568 l 0.73729,-0.32627 -0.0844,-0.18387 c -0.13416,-0.29235 -1.37906,-2.4498 -1.99234,-3.45281 -3.88427,-6.35259 -9.58592,-13.46363 -16.15931,-20.15371 -0.35755,-0.36389 -0.65023,-0.68046 -0.65041,-0.70351 -1.7e-4,-0.023 0.23847,-0.38067 0.53033,-0.79472 3.60797,-5.11844 8.67292,-9.6706 14.33989,-12.88805 2.56801,-1.458 5.95556,-2.98684 7.90783,-3.56888 3.41763,-1.01892 7.273923,-1.74856 11.067786,-2.0941 3.99743,-0.36409 8.66967,-0.32678 12.63292,0.10087 2.77941,0.29991 5.56602,0.78588 7.09904,1.23803 5.99082,1.76693 11.58778,4.7004 16.43398,8.61336 0.86726,0.70025 3.32593,2.91898 3.32593,3.00136 0,0.0257 -3.62219,5.40894 -8.0493,11.96283 -4.42711,6.55388 -8.0493,11.92445 -8.0493,11.93459 0,0.0102 3.60961,0.0185 8.02135,0.0185 h 8.02135 v 16.39019 16.39019 l -1.04809,0.97104 c -5.49089,5.08725 -12.11843,8.75483 -19.52233,10.80336 -3.17248,0.87778 -6.28601,1.41033 -9.83804,1.68277 -0.96793,0.0742 -4.66789,0.13929 -5.45005,0.0958 z m 16.57373,-12.41425 c 2.25159,-0.7419 4.70841,-1.82725 6.60411,-2.9175 l 0.37149,-0.21365 0.0323,-0.77491 c 0.0178,-0.42619 0.0705,-4.66823 0.11721,-9.42675 0.0467,-4.75851 0.10052,-9.29021 0.11959,-10.07044 l 0.0347,-1.41859 -5.10697,0.0374 c -2.80884,0.0206 -5.11764,0.0465 -5.13067,0.0576 -0.0265,0.0226 0.66701,25.25385 0.69676,25.34775 0.0228,0.0722 0.83432,-0.15059 2.26158,-0.62088 z m -8.24513,-45.41458 c 4.60098,-7.12025 8.34422,-12.96522 8.31829,-12.98883 -0.0866,-0.0789 -1.74062,-0.605 -2.77147,-0.88158 -2.53478,-0.68008 -5.1754,-1.10207 -8.20178,-1.3107 -1.17979,-0.0813 -4.79771,-0.0814 -5.92518,-5e-5 -4.92685,0.35531 -9.010106,1.25849 -13.065466,2.88997 -0.89567,0.36033 -2.34218,1.0174 -2.38784,1.08466 -0.019,0.0279 3.35268,5.30184 7.492473,11.71988 8.777823,13.60856 8.073893,12.52851 8.130643,12.47495 0.0247,-0.0233 3.80935,-5.86804 8.41033,-12.98829 z"
       id="path21" />
  </g>
</svg>
